<?xml version="1.0" encoding="utf-8"?>
<!-- Generator: Adobe Illustrator 24.2.0, SVG Export Plug-In . SVG Version: 6.00 Build 0)  -->
<svg version="1.1" baseProfile="tiny" id="Layer_1" xmlns="http://www.w3.org/2000/svg" xmlns:xlink="http://www.w3.org/1999/xlink"
	 x="0px" y="0px" viewBox="0 0 214.79 42.51" overflow="visible" xml:space="preserve">
<path fill="#00A4D7" d="M22.94,4.93l4.95,10.03c0.08,0.17,0.25,0.29,0.44,0.32l11.07,1.61c0.47,0.07,0.66,0.65,0.32,0.99l-8.01,7.81
	c-0.14,0.13-0.2,0.32-0.17,0.51l1.89,11.03c0.08,0.47-0.42,0.83-0.84,0.61l-9.9-5.21c-0.17-0.09-0.37-0.09-0.54,0l-9.9,5.21
	c-0.42,0.22-0.92-0.14-0.84-0.61L13.3,26.2c0.03-0.19-0.03-0.38-0.17-0.51l-8.01-7.81c-0.34-0.33-0.15-0.92,0.32-0.99l11.07-1.61
	c0.19-0.03,0.35-0.15,0.44-0.32L21.9,4.93C22.11,4.5,22.73,4.5,22.94,4.93z"/>
<path fill="#00A4D7" d="M63.88,4.93l4.95,10.03c0.08,0.17,0.25,0.29,0.44,0.32l11.07,1.61c0.47,0.07,0.66,0.65,0.32,0.99l-8.01,7.81
	c-0.14,0.13-0.2,0.32-0.17,0.51l1.89,11.03c0.08,0.47-0.42,0.83-0.84,0.61l-9.9-5.21c-0.17-0.09-0.37-0.09-0.54,0l-9.9,5.21
	c-0.42,0.22-0.92-0.14-0.84-0.61l1.89-11.03c0.03-0.19-0.03-0.38-0.17-0.51l-8.01-7.81c-0.34-0.33-0.15-0.92,0.32-0.99l11.07-1.61
	c0.19-0.03,0.35-0.15,0.44-0.32l4.95-10.03C63.05,4.5,63.67,4.5,63.88,4.93z"/>
<path fill="#00A4D7" d="M104.82,4.93l4.95,10.03c0.08,0.17,0.25,0.29,0.44,0.32l11.07,1.61c0.47,0.07,0.66,0.65,0.32,0.99
	l-8.01,7.81c-0.14,0.13-0.2,0.32-0.17,0.51l1.89,11.03c0.08,0.47-0.42,0.83-0.84,0.61l-9.9-5.21c-0.17-0.09-0.37-0.09-0.54,0
	l-9.9,5.21c-0.42,0.22-0.92-0.14-0.84-0.61l1.89-11.03c0.03-0.19-0.03-0.38-0.17-0.51L87,17.88c-0.34-0.33-0.15-0.92,0.32-0.99
	l11.07-1.61c0.19-0.03,0.35-0.15,0.44-0.32l4.95-10.03C104,4.5,104.61,4.5,104.82,4.93z"/>
<path fill="#00A4D7" d="M145.76,4.93l4.95,10.03c0.08,0.17,0.25,0.29,0.44,0.32l11.07,1.61c0.47,0.07,0.66,0.65,0.32,0.99
	l-8.01,7.81c-0.14,0.13-0.2,0.32-0.17,0.51l1.89,11.03c0.08,0.47-0.42,0.83-0.84,0.61l-9.9-5.21c-0.17-0.09-0.37-0.09-0.54,0
	l-9.9,5.21c-0.42,0.22-0.92-0.14-0.84-0.61l1.89-11.03c0.03-0.19-0.03-0.38-0.17-0.51l-8.01-7.81c-0.34-0.33-0.15-0.92,0.32-0.99
	l11.07-1.61c0.19-0.03,0.35-0.15,0.44-0.32l4.95-10.03C144.94,4.5,145.55,4.5,145.76,4.93z"/>
<path fill="#00A4D7" d="M186.7,4.93l4.95,10.03c0.08,0.17,0.25,0.29,0.44,0.32l11.07,1.61c0.47,0.07,0.66,0.65,0.32,0.99l-8.01,7.81
	c-0.14,0.13-0.2,0.32-0.17,0.51l1.89,11.03c0.08,0.47-0.42,0.83-0.84,0.61l-9.9-5.21c-0.17-0.09-0.37-0.09-0.54,0l-9.9,5.21
	c-0.42,0.22-0.92-0.14-0.84-0.61l1.89-11.03c0.03-0.19-0.03-0.38-0.17-0.51l-8.01-7.81c-0.34-0.33-0.15-0.92,0.32-0.99l11.07-1.61
	c0.19-0.03,0.35-0.15,0.44-0.32l4.95-10.03C185.88,4.5,186.49,4.5,186.7,4.93z"/>
</svg>
